# https://github.com/mikedh/trimesh

o shape0-lib
v 0.01270470 -0.08871170 -0.01068190
v -0.04309500 -0.15412600 -0.04547910
v -0.00113557 -0.22127099 -0.02289520
v 0.02411300 -0.53331298 -0.00951029
v -0.00448572 -0.50170898 -0.01888440
v 0.01792010 -0.80451101 0.00414815
v 0.01792010 -0.80451101 0.00414815
v -0.00448572 -0.50170898 -0.01888440
v -0.00638428 -0.65090799 -0.00786043
v 0.02989480 -0.96582401 0.00334253
v 0.01792010 -0.80451101 0.00414815
v -0.02811360 -0.98270899 0.00578634
v -0.04984260 -0.42124599 -0.05464210
v -0.04309500 -0.15412600 -0.04547910
v -0.11351100 -0.27403900 -0.13575201
v -0.04309500 -0.15412600 -0.04547910
v -0.08357140 -0.14003100 -0.07364560
v -0.11351100 -0.27403900 -0.13575201
v -0.04309500 -0.15412600 -0.04547910
v -0.04984260 -0.42124599 -0.05464210
v -0.00113557 -0.22127099 -0.02289520
v -0.04984260 -0.42124599 -0.05464210
v -0.00638428 -0.65090799 -0.00786043
v -0.00448572 -0.50170898 -0.01888440
v -0.11351100 -0.27403900 -0.13575201
v -0.11470200 -0.41512501 -0.12953000
v -0.04984260 -0.42124599 -0.05464210
v -0.04984260 -0.42124599 -0.05464210
v -0.11470200 -0.41512501 -0.12953000
v -0.08786530 -0.65107399 -0.06115300
v -0.00638428 -0.65090799 -0.00786043
v -0.08786530 -0.65107399 -0.06115300
v -0.07467120 -0.82596803 -0.01752550
v -0.04071540 -0.98947603 0.00136343
v -0.07467120 -0.82596803 -0.01752550
v -0.07500170 -0.97503901 -0.00934454
v -0.00113557 -0.22127099 -0.02289520
v -0.00448572 -0.50170898 -0.01888440
v 0.05667400 -0.33057201 -0.00986835
v 0.01792010 -0.80451101 0.00414815
v 0.05379110 -0.64341599 -0.00904126
v 0.02411300 -0.53331298 -0.00951029
v -0.00448572 -0.50170898 -0.01888440
v 0.02411300 -0.53331298 -0.00951029
v 0.05667400 -0.33057201 -0.00986835
v 0.02989480 -0.96582401 0.00334253
v 0.05181490 -0.83919400 -0.00766297
v 0.01792010 -0.80451101 0.00414815
v 0.05181490 -0.83919400 -0.00766297
v 0.05379110 -0.64341599 -0.00904126
v 0.01792010 -0.80451101 0.00414815
v 0.02411300 -0.53331298 -0.00951029
v 0.05379110 -0.64341599 -0.00904126
v 0.05667400 -0.33057201 -0.00986835
v 0.05590170 -0.05887280 -0.00965852
v 0.01270470 -0.08871170 -0.01068190
v 0.05667400 -0.33057201 -0.00986835
v -0.00113557 -0.22127099 -0.02289520
v 0.05667400 -0.33057201 -0.00986835
v 0.01270470 -0.08871170 -0.01068190
v -0.00113557 -0.22127099 -0.02289520
v -0.04984260 -0.42124599 -0.05464210
v -0.00448572 -0.50170898 -0.01888440
v -0.04984260 -0.42124599 -0.05464210
v -0.08786530 -0.65107399 -0.06115300
v -0.00638428 -0.65090799 -0.00786043
v -0.00638428 -0.65090799 -0.00786043
v -0.02811360 -0.98270899 0.00578634
v 0.01792010 -0.80451101 0.00414815
v -0.00638428 -0.65090799 -0.00786043
v -0.07467120 -0.82596803 -0.01752550
v -0.02811360 -0.98270899 0.00578634
v -0.02811360 -0.98270899 0.00578634
v -0.07467120 -0.82596803 -0.01752550
v -0.04071540 -0.98947603 0.00136343
v 0.05590170 -0.05887280 -0.00965852
v -0.05585820 -0.06658600 -0.00972389
v 0.01270470 -0.08871170 -0.01068190
v -0.04309500 -0.15412600 -0.04547910
v -0.05585820 -0.06658600 -0.00972389
v -0.08357140 -0.14003100 -0.07364560
v -0.04309500 -0.15412600 -0.04547910
v 0.01270470 -0.08871170 -0.01068190
v -0.05585820 -0.06658600 -0.00972389
v 0.05587350 0.06594860 -0.00971291
v -0.05569110 0.06617150 -0.00963317
v 0.05590170 -0.05887280 -0.00965852
v -0.05585820 -0.06658600 -0.00972389
v 0.08311700 0.13835400 -0.07317620
v -0.00174063 0.08183490 -0.00868353
v 0.05587350 0.06594860 -0.00971291
v -0.05569110 0.06617150 -0.00963317
v 0.05587350 0.06594860 -0.00971291
v -0.00174063 0.08183490 -0.00868353
v -0.00174063 0.08183490 -0.00868353
v 0.08311700 0.13835400 -0.07317620
v 0.03759590 0.20358700 -0.04804210
v -0.02411300 0.53331298 -0.00951029
v 0.00438720 0.50360799 -0.01880590
v -0.01791990 0.80451202 0.00414817
v -0.01791990 0.80451202 0.00414817
v 0.00438720 0.50360799 -0.01880590
v 0.00638430 0.65090698 -0.00786046
v -0.02989260 0.96582401 0.00334368
v -0.01791990 0.80451202 0.00414817
v 0.02811560 0.98271900 0.00578593
v 0.03759590 0.20358700 -0.04804210
v 0.08311700 0.13835400 -0.07317620
v 0.11354100 0.27417201 -0.13578500
v 0.05002100 0.44360101 -0.05284030
v 0.00638430 0.65090698 -0.00786046
v 0.00438720 0.50360799 -0.01880590
v 0.03759590 0.20358700 -0.04804210
v 0.11354100 0.27417201 -0.13578500
v 0.05002100 0.44360101 -0.05284030
v 0.11354100 0.27417201 -0.13578500
v 0.11470200 0.41512600 -0.12953000
v 0.05002100 0.44360101 -0.05284030
v 0.05002100 0.44360101 -0.05284030
v 0.11470200 0.41512600 -0.12953000
v 0.08786500 0.65107697 -0.06115220
v 0.00638430 0.65090698 -0.00786046
v 0.08786500 0.65107697 -0.06115220
v 0.07467060 0.82597500 -0.01752440
v 0.04087790 0.98949498 0.00131778
v 0.07467060 0.82597500 -0.01752440
v 0.07500170 0.97503901 -0.00934454
v -0.01791990 0.80451202 0.00414817
v -0.05379110 0.64341599 -0.00904126
v -0.02411300 0.53331298 -0.00951029
v -0.02989260 0.96582401 0.00334368
v -0.05181490 0.83919400 -0.00766297
v -0.01791990 0.80451202 0.00414817
v -0.05181490 0.83919400 -0.00766297
v -0.05379110 0.64341599 -0.00904126
v -0.01791990 0.80451202 0.00414817
v -0.02411300 0.53331298 -0.00951029
v -0.05379110 0.64341599 -0.00904126
v -0.05746190 0.18007500 -0.01048710
v -0.02411300 0.53331298 -0.00951029
v -0.05746190 0.18007500 -0.01048710
v 0.00438720 0.50360799 -0.01880590
v -0.05746190 0.18007500 -0.01048710
v -0.00046521 0.23360400 -0.02185990
v 0.00438720 0.50360799 -0.01880590
v -0.05746190 0.18007500 -0.01048710
v -0.05569110 0.06617150 -0.00963317
v -0.00174063 0.08183490 -0.00868353
v -0.00174063 0.08183490 -0.00868353
v 0.03759590 0.20358700 -0.04804210
v -0.00046521 0.23360400 -0.02185990
v -0.00046521 0.23360400 -0.02185990
v -0.05746190 0.18007500 -0.01048710
v -0.00174063 0.08183490 -0.00868353
v -0.00046521 0.23360400 -0.02185990
v 0.03759590 0.20358700 -0.04804210
v 0.05002100 0.44360101 -0.05284030
v -0.00046521 0.23360400 -0.02185990
v 0.05002100 0.44360101 -0.05284030
v 0.00438720 0.50360799 -0.01880590
v 0.05002100 0.44360101 -0.05284030
v 0.08786500 0.65107697 -0.06115220
v 0.00638430 0.65090698 -0.00786046
v 0.00638430 0.65090698 -0.00786046
v 0.02811560 0.98271900 0.00578593
v -0.01791990 0.80451202 0.00414817
v 0.00638430 0.65090698 -0.00786046
v 0.07467060 0.82597500 -0.01752440
v 0.02811560 0.98271900 0.00578593
v 0.02811560 0.98271900 0.00578593
v 0.07467060 0.82597500 -0.01752440
v 0.04087790 0.98949498 0.00131778
v -0.01352630 0.10483400 -0.06578280
v -0.00807352 0.12266800 -0.03704250
v 0.00563656 0.12358300 -0.14077701
v 0.00563656 0.12358300 -0.14077701
v -0.00807352 0.12266800 -0.03704250
v 0.01608780 0.10419200 -0.04741780
v -0.00893773 -0.12151000 -0.03823010
v 0.01669640 -0.10436800 -0.03856410
v -0.01139460 -0.10368900 -0.07061050
v -0.00447572 -0.09316940 -0.14241500
v -0.01139460 -0.10368900 -0.07061050
v 0.01669640 -0.10436800 -0.03856410
v -0.00447572 -0.09316940 -0.14241500
v 0.01669640 -0.10436800 -0.03856410
v 0.02124380 -0.11696900 -0.14857000
v 0.02124380 -0.11696900 -0.14857000
v 0.01669640 -0.10436800 -0.03856410
v -0.00893773 -0.12151000 -0.03823010
v 0.02124380 -0.11696900 -0.14857000
v -0.00893773 -0.12151000 -0.03823010
v -0.01139460 -0.10368900 -0.07061050
v -0.02350910 -0.00171967 -0.12657900
v -0.00415282 -0.02592710 -0.04324600
v -0.00224565 -0.01577100 -0.04894040
v -0.00224565 -0.01577100 -0.04894040
v -0.00415282 -0.02592710 -0.04324600
v 0.01596210 -0.02784720 -0.00996952
v -0.00224565 -0.01577100 -0.04894040
v 0.01596210 -0.02784720 -0.00996952
v 0.00254503 0.01094620 -0.03091680
v -0.00825915 0.02590780 -0.04809050
v -0.02350910 -0.00171967 -0.12657900
v 0.00254503 0.01094620 -0.03091680
v 0.00254503 0.01094620 -0.03091680
v 0.02114060 0.01493580 -0.14038000
v -0.00825915 0.02590780 -0.04809050
v 0.02114060 0.01493580 -0.14038000
v 0.00254503 0.01094620 -0.03091680
v 0.01596210 -0.02784720 -0.00996952
v -0.00224565 -0.01577100 -0.04894040
v 0.00254503 0.01094620 -0.03091680
v -0.02350910 -0.00171967 -0.12657900
v 0.01923800 0.12782200 -0.02761850
v 0.02581330 0.23483799 -0.03882690
v -0.00491936 0.21935999 -0.01960460
v 0.01923800 0.12782200 -0.02761850
v 0.08989730 0.23919700 -0.10476600
v 0.02581330 0.23483799 -0.03882690
v -0.02066530 0.12710100 -0.00900471
v -0.05569110 0.06617150 -0.00963317
v -0.00847378 0.07539320 -0.00850851
v -0.00847378 0.07539320 -0.00850851
v -0.02556530 0.11973700 -0.14377201
v -0.02066530 0.12710100 -0.00900471
v 0.03097370 0.44140601 -0.03693490
v 0.06469630 0.51325202 -0.06428440
v 0.01306510 0.69834203 -0.00499756
v 0.07623350 0.89877898 -0.01276890
v 0.01306510 0.69834203 -0.00499756
v 0.08204610 0.76524001 -0.03050000
v 0.02581330 0.23483799 -0.03882690
v 0.08989730 0.23919700 -0.10476600
v 0.06469630 0.51325202 -0.06428440
v 0.02581330 0.23483799 -0.03882690
v 0.06469630 0.51325202 -0.06428440
v 0.03097370 0.44140601 -0.03693490
v 0.06469630 0.51325202 -0.06428440
v 0.08989730 0.23919700 -0.10476600
v 0.11897500 0.37281400 -0.13963600
v 0.06469630 0.51325202 -0.06428440
v 0.08204610 0.76524001 -0.03050000
v 0.01306510 0.69834203 -0.00499756
v 0.07500170 0.97503901 -0.00934454
v 0.04087790 0.98949498 0.00131778
v 0.07623350 0.89877898 -0.01276890
v 0.01306510 0.69834203 -0.00499756
v 0.04087790 0.98949498 0.00131778
v -0.02270390 0.85297501 0.00390995
v 0.02581330 0.23483799 -0.03882690
v -0.01441620 0.52562100 -0.01091030
v -0.00491936 0.21935999 -0.01960460
v -0.00491936 0.21935999 -0.01960460
v -0.01441620 0.52562100 -0.01091030
v -0.05840500 0.25407600 -0.00958140
v -0.02270390 0.85297501 0.00390995
v -0.02989260 0.96582401 0.00334368
v -0.05181490 0.83919400 -0.00766297
v -0.02989260 0.96582401 0.00334368
v -0.05334840 0.95098299 -0.00752904
v -0.05181490 0.83919400 -0.00766297
v -0.02270390 0.85297501 0.00390995
v -0.05636350 0.55811101 -0.00976680
v -0.01441620 0.52562100 -0.01091030
v -0.01441620 0.52562100 -0.01091030
v -0.05636350 0.55811101 -0.00976680
v -0.05840500 0.25407600 -0.00958140
v -0.00491936 0.21935999 -0.01960460
v -0.05569110 0.06617150 -0.00963317
v -0.02066530 0.12710100 -0.00900471
v -0.01441620 0.52562100 -0.01091030
v 0.03097370 0.44140601 -0.03693490
v 0.01306510 0.69834203 -0.00499756
v 0.02581330 0.23483799 -0.03882690
v 0.03097370 0.44140601 -0.03693490
v -0.01441620 0.52562100 -0.01091030
v -0.01441620 0.52562100 -0.01091030
v 0.01306510 0.69834203 -0.00499756
v -0.02270390 0.85297501 0.00390995
v 0.04087790 0.98949498 0.00131778
v 0.01306510 0.69834203 -0.00499756
v 0.07623350 0.89877898 -0.01276890
v 0.02124380 -0.11696900 -0.14857000
v -0.00097560 -0.14012501 -0.02252720
v 0.02315190 -0.11801100 -0.01180340
v 0.02315190 -0.11801100 -0.01180340
v 0.01413880 -0.08826160 -0.01229760
v 0.01738980 -0.08933290 -0.13590200
v 0.01738980 -0.08933290 -0.13590200
v 0.02124380 -0.11696900 -0.14857000
v 0.02315190 -0.11801100 -0.01180340
v -0.01976300 -0.11889500 -0.15208600
v -0.00097560 -0.14012501 -0.02252720
v 0.00570280 -0.13439700 -0.14005800
v -0.01976300 -0.11889500 -0.15208600
v -0.00797097 -0.08548550 -0.05241140
v -0.02513230 -0.10227400 -0.01690850
v 0.01738980 -0.08933290 -0.13590200
v 0.01413880 -0.08826160 -0.01229760
v -0.00797097 -0.08548550 -0.05241140
v -0.00097560 -0.14012501 -0.02252720
v 0.02124380 -0.11696900 -0.14857000
v 0.00570280 -0.13439700 -0.14005800
v 0.01413880 -0.08826160 -0.01229760
v 0.05590170 -0.05887280 -0.00965852
v 0.01596210 -0.02784720 -0.00996952
v -0.08357140 -0.14003100 -0.07364560
v -0.02513230 -0.10227400 -0.01690850
v -0.05585820 -0.06658600 -0.00972389
v 0.02526100 0.10434100 -0.15221900
v 0.00491512 0.08468850 -0.03843740
v 0.01923800 0.12782200 -0.02761850
v 0.00491512 0.08468850 -0.03843740
v 0.01530050 0.07616270 -0.00924243
v 0.01923800 0.12782200 -0.02761850
v -0.00825915 0.02590780 -0.04809050
v -0.02521900 -0.00095966 -0.00970329
v -0.02350910 -0.00171967 -0.12657900
v -0.00825915 0.02590780 -0.04809050
v 0.02114060 0.01493580 -0.14038000
v 0.01403910 0.02056430 -0.01045830
v -0.02521900 -0.00095966 -0.00970329
v -0.00415282 -0.02592710 -0.04324600
v -0.02350910 -0.00171967 -0.12657900
v 0.01530050 0.07616270 -0.00924243
v 0.05587350 0.06594860 -0.00971291
v 0.08311700 0.13835400 -0.07317620
v 0.08311700 0.13835400 -0.07317620
v 0.08989730 0.23919700 -0.10476600
v 0.01530050 0.07616270 -0.00924243
v 0.01923800 0.12782200 -0.02761850
v 0.01530050 0.07616270 -0.00924243
v 0.08989730 0.23919700 -0.10476600
v 0.05590170 -0.05887280 -0.00965852
v 0.05587350 0.06594860 -0.00971291
v 0.01596210 -0.02784720 -0.00996952
v 0.01596210 -0.02784720 -0.00996952
v 0.05587350 0.06594860 -0.00971291
v 0.01403910 0.02056430 -0.01045830
v 0.05587350 0.06594860 -0.00971291
v 0.01530050 0.07616270 -0.00924243
v 0.01403910 0.02056430 -0.01045830
v -0.02513230 -0.10227400 -0.01690850
v -0.02521900 -0.00095966 -0.00970329
v -0.05585820 -0.06658600 -0.00972389
v -0.02521900 -0.00095966 -0.00970329
v -0.05569110 0.06617150 -0.00963317
v -0.02521900 -0.00095966 -0.00970329
v -0.00847378 0.07539320 -0.00850851
v 0.02114060 0.01493580 -0.14038000
v 0.01596210 -0.02784720 -0.00996952
v 0.01403910 0.02056430 -0.01045830
v -0.02066530 0.12710100 -0.00900471
v -0.02556530 0.11973700 -0.14377201
v 0.01923800 0.12782200 -0.02761850
v -0.02556530 0.11973700 -0.14377201
v -0.00847378 0.07539320 -0.00850851
v -0.00674691 0.07961890 -0.06490370
v -0.00674691 0.07961890 -0.06490370
v 0.00491512 0.08468850 -0.03843740
v 0.02526100 0.10434100 -0.15221900
v -0.00422541 -0.20543700 -0.02482240
v -0.00097560 -0.14012501 -0.02252720
v -0.01976300 -0.11889500 -0.15208600
v -0.00422541 -0.20543700 -0.02482240
v -0.01976300 -0.11889500 -0.15208600
v -0.02513230 -0.10227400 -0.01690850
v -0.00422541 -0.20543700 -0.02482240
v -0.02601420 -0.27974701 -0.03863980
v -0.00097560 -0.14012501 -0.02252720
v -0.00097560 -0.14012501 -0.02252720
v -0.02601420 -0.27974701 -0.03863980
v 0.02387690 -0.38343301 -0.01485520
v -0.00097560 -0.14012501 -0.02252720
v 0.02387690 -0.38343301 -0.01485520
v 0.02315190 -0.11801100 -0.01180340
v -0.02601420 -0.27974701 -0.03863980
v -0.05373430 -0.16025400 -0.05635990
v -0.10865400 -0.28581199 -0.12711500
v -0.05373430 -0.16025400 -0.05635990
v -0.02513230 -0.10227400 -0.01690850
v -0.08357140 -0.14003100 -0.07364560
v -0.05373430 -0.16025400 -0.05635990
v -0.10577100 -0.21969400 -0.11922400
v -0.10865400 -0.28581199 -0.12711500
v -0.07087060 -0.46520099 -0.07459060
v -0.10481800 -0.54540098 -0.09688580
v -0.05395720 -0.70102102 -0.02630600
v -0.00665396 -0.85549301 0.00540093
v -0.04071540 -0.98947603 0.00136343
v 0.02274050 -0.85053003 0.00378915
v -0.05395720 -0.70102102 -0.02630600
v -0.08082770 -0.78035098 -0.02766720
v -0.07623400 -0.89860803 -0.01278060
v -0.07623400 -0.89860803 -0.01278060
v -0.07500170 -0.97503901 -0.00934454
v -0.04071540 -0.98947603 0.00136343
v 0.02989480 -0.96582401 0.00334253
v 0.05181490 -0.83919400 -0.00766297
v 0.02274050 -0.85053003 0.00378915
v 0.05181490 -0.83919400 -0.00766297
v 0.02989480 -0.96582401 0.00334253
v 0.05355200 -0.95091802 -0.00758994
v 0.02274050 -0.85053003 0.00378915
v 0.05800130 -0.59644300 -0.00994971
v 0.01210080 -0.59148502 -0.00727931
v 0.01210080 -0.59148502 -0.00727931
v 0.05800130 -0.59644300 -0.00994971
v 0.02387690 -0.38343301 -0.01485520
v 0.01413880 -0.08826160 -0.01229760
v 0.02315190 -0.11801100 -0.01180340
v 0.05590170 -0.05887280 -0.00965852
v -0.05373430 -0.16025400 -0.05635990
v -0.02601420 -0.27974701 -0.03863980
v -0.00422541 -0.20543700 -0.02482240
v -0.02513230 -0.10227400 -0.01690850
v -0.05373430 -0.16025400 -0.05635990
v -0.00422541 -0.20543700 -0.02482240
v -0.02601420 -0.27974701 -0.03863980
v -0.10865400 -0.28581199 -0.12711500
v -0.07087060 -0.46520099 -0.07459060
v -0.02601420 -0.27974701 -0.03863980
v -0.07087060 -0.46520099 -0.07459060
v -0.02280760 -0.52592301 -0.02692070
v 0.02387690 -0.38343301 -0.01485520
v -0.02280760 -0.52592301 -0.02692070
v 0.01210080 -0.59148502 -0.00727931
v -0.02601420 -0.27974701 -0.03863980
v -0.02280760 -0.52592301 -0.02692070
v 0.02387690 -0.38343301 -0.01485520
v 0.01210080 -0.59148502 -0.00727931
v -0.00665396 -0.85549301 0.00540093
v 0.02274050 -0.85053003 0.00378915
v -0.02280760 -0.52592301 -0.02692070
v -0.07087060 -0.46520099 -0.07459060
v -0.05395720 -0.70102102 -0.02630600
v -0.02280760 -0.52592301 -0.02692070
v -0.05395720 -0.70102102 -0.02630600
v 0.01210080 -0.59148502 -0.00727931
v -0.05395720 -0.70102102 -0.02630600
v -0.07623400 -0.89860803 -0.01278060
v 0.01210080 -0.59148502 -0.00727931
v 0.01210080 -0.59148502 -0.00727931
v -0.07623400 -0.89860803 -0.01278060
v -0.00665396 -0.85549301 0.00540093
v -0.00665396 -0.85549301 0.00540093
v -0.00847378 0.07539320 -0.00850851
v -0.02521900 -0.00095966 -0.00970329
v -0.00825915 0.02590780 -0.04809050
v 0.01608780 0.10419200 -0.04741780
v 0.02526100 0.10434100 -0.15221900
v 0.00563656 0.12358300 -0.14077701
v 0.00563656 0.12358300 -0.14077701
v 0.02526100 0.10434100 -0.15221900
v 0.01923800 0.12782200 -0.02761850
v 0.01608780 0.10419200 -0.04741780
v -0.00446565 0.09368330 -0.14606200
v 0.02526100 0.10434100 -0.15221900
v 0.02526100 0.10434100 -0.15221900
v -0.00446565 0.09368330 -0.14606200
v -0.00674691 0.07961890 -0.06490370
v -0.00674691 0.07961890 -0.06490370
v -0.00446565 0.09368330 -0.14606200
v -0.02556530 0.11973700 -0.14377201
v -0.02556530 0.11973700 -0.14377201
v -0.00446565 0.09368330 -0.14606200
v -0.01352630 0.10483400 -0.06578280
v -0.02556530 0.11973700 -0.14377201
v -0.01352630 0.10483400 -0.06578280
v 0.00563656 0.12358300 -0.14077701
v -0.02556530 0.11973700 -0.14377201
v 0.00563656 0.12358300 -0.14077701
v 0.01923800 0.12782200 -0.02761850
v 0.00570280 -0.13439700 -0.14005800
v 0.02124380 -0.11696900 -0.14857000
v -0.01976300 -0.11889500 -0.15208600
v 0.02124380 -0.11696900 -0.14857000
v -0.01139460 -0.10368900 -0.07061050
v -0.01976300 -0.11889500 -0.15208600
v -0.01139460 -0.10368900 -0.07061050
v -0.00447572 -0.09316940 -0.14241500
v -0.01976300 -0.11889500 -0.15208600
v -0.01976300 -0.11889500 -0.15208600
v -0.00447572 -0.09316940 -0.14241500
v -0.00797097 -0.08548550 -0.05241140
v -0.00797097 -0.08548550 -0.05241140
v -0.00447572 -0.09316940 -0.14241500
v 0.01738980 -0.08933290 -0.13590200
v 0.01738980 -0.08933290 -0.13590200
v -0.00447572 -0.09316940 -0.14241500
v 0.02124380 -0.11696900 -0.14857000
v -0.05847800 -0.06418060 -0.00000429
v -0.05569110 0.06617150 -0.00963317
v -0.05840500 0.25407600 -0.00958140
v -0.05847800 -0.06418060 -0.00000429
v -0.05585820 -0.06658600 -0.00972389
v -0.05569110 0.06617150 -0.00963317
v -0.07087060 -0.46520099 -0.07459060
v -0.10865400 -0.28581199 -0.12711500
v -0.11800400 -0.36450601 -0.13863300
v -0.10577100 -0.21969400 -0.11922400
v -0.05373430 -0.16025400 -0.05635990
v -0.08357140 -0.14003100 -0.07364560
v -0.05395720 -0.70102102 -0.02630600
v -0.10481800 -0.54540098 -0.09688580
v -0.08082770 -0.78035098 -0.02766720
v -0.07500170 -0.97503901 -0.00934454
v -0.08106650 -0.84862000 -0.00743488
v -0.03800920 -1.00286996 0.01289410
v -0.07623400 -0.89860803 -0.01278060
v -0.08106650 -0.84862000 -0.00743488
v -0.07500170 -0.97503901 -0.00934454
v -0.07500170 -0.97503901 -0.00934454
v -0.03800920 -1.00286996 0.01289410
v -0.04071540 -0.98947603 0.00136343
v -0.04071540 -0.98947603 0.00136343
v 0.03031270 -0.95526898 0.01302220
v 0.02274050 -0.85053003 0.00378915
v 0.02274050 -0.85053003 0.00378915
v 0.03031270 -0.95526898 0.01302220
v 0.02989480 -0.96582401 0.00334253
v 0.02315190 -0.11801100 -0.01180340
v 0.02387690 -0.38343301 -0.01485520
v 0.05590170 -0.05887280 -0.00965852
v 0.02387690 -0.38343301 -0.01485520
v 0.05800130 -0.59644300 -0.00994971
v 0.05590170 -0.05887280 -0.00965852
v 0.05800130 -0.59644300 -0.00994971
v 0.02274050 -0.85053003 0.00378915
v 0.05181490 -0.83919400 -0.00766297
v 0.05838210 -0.07186810 -0.00025423
v 0.05590170 -0.05887280 -0.00965852
v 0.05800130 -0.59644300 -0.00994971
v 0.05800130 -0.59644300 -0.00994971
v 0.05181490 -0.83919400 -0.00766297
v 0.05355200 -0.95091802 -0.00758994
v -0.05847800 -0.06418060 -0.00000429
v -0.03316660 -0.12148900 -0.02041790
v -0.05585820 -0.06658600 -0.00972389
v -0.05847800 -0.06418060 -0.00000429
v 0.00949624 -0.07469970 0.00040248
v -0.03316660 -0.12148900 -0.02041790
v -0.12220800 -0.28335601 -0.13068500
v -0.10577100 -0.21969400 -0.11922400
v -0.09369960 -0.20388401 -0.08886870
v -0.09369960 -0.20388401 -0.08886870
v -0.05585820 -0.06658600 -0.00972389
v -0.03316660 -0.12148900 -0.02041790
v -0.10481800 -0.54540098 -0.09688580
v -0.09207590 -0.70436698 -0.03806630
v -0.08082770 -0.78035098 -0.02766720
v -0.09207590 -0.70436698 -0.03806630
v -0.08106650 -0.84862000 -0.00743488
v -0.08082770 -0.78035098 -0.02766720
v -0.12220800 -0.28335601 -0.13068500
v -0.11800400 -0.36450601 -0.13863300
v -0.10865400 -0.28581199 -0.12711500
v -0.05585820 -0.06658600 -0.00972389
v -0.09369960 -0.20388401 -0.08886870
v -0.08357140 -0.14003100 -0.07364560
v -0.08357140 -0.14003100 -0.07364560
v -0.09369960 -0.20388401 -0.08886870
v -0.10577100 -0.21969400 -0.11922400
v -0.11800400 -0.36450601 -0.13863300
v -0.12220800 -0.28335601 -0.13068500
v -0.12430900 -0.39153999 -0.12813300
v -0.12430900 -0.39153999 -0.12813300
v -0.06078190 -0.53417403 -0.04289530
v -0.09207590 -0.70436698 -0.03806630
v -0.09207590 -0.70436698 -0.03806630
v -0.06078190 -0.53417403 -0.04289530
v -0.08106650 -0.84862000 -0.00743488
v -0.07087060 -0.46520099 -0.07459060
v -0.12430900 -0.39153999 -0.12813300
v -0.10481800 -0.54540098 -0.09688580
v -0.10481800 -0.54540098 -0.09688580
v -0.12430900 -0.39153999 -0.12813300
v -0.09207590 -0.70436698 -0.03806630
v 0.00346802 -0.80868298 0.01592610
v 0.03031270 -0.95526898 0.01302220
v -0.03800920 -1.00286996 0.01289410
v 0.03031270 -0.95526898 0.01302220
v 0.05731770 -0.95199198 -0.00004063
v 0.02989480 -0.96582401 0.00334253
v 0.05355200 -0.95091802 -0.00758994
v 0.02989480 -0.96582401 0.00334253
v 0.05731770 -0.95199198 -0.00004063
v 0.05621490 -0.61831498 0.00036139
v 0.04920080 -0.41031599 -0.00079041
v 0.05580100 -0.18587001 -0.00030265
v 0.05800130 -0.59644300 -0.00994971
v 0.05355200 -0.95091802 -0.00758994
v 0.05731770 -0.95199198 -0.00004063
v 0.03031270 -0.95526898 0.01302220
v 0.05621490 -0.61831498 0.00036139
v 0.05731770 -0.95199198 -0.00004063
v 0.05621490 -0.61831498 0.00036139
v -0.00309347 -0.64782298 0.00342704
v 0.04920080 -0.41031599 -0.00079041
v 0.05580100 -0.18587001 -0.00030265
v 0.05838210 -0.07186810 -0.00025423
v 0.05621490 -0.61831498 0.00036139
v 0.05580100 -0.18587001 -0.00030265
v 0.00949624 -0.07469970 0.00040248
v 0.05838210 -0.07186810 -0.00025423
v 0.05838210 -0.07186810 -0.00025423
v 0.05800130 -0.59644300 -0.00994971
v 0.05731770 -0.95199198 -0.00004063
v 0.05621490 -0.61831498 0.00036139
v 0.05838210 -0.07186810 -0.00025423
v 0.05731770 -0.95199198 -0.00004063
v 0.03031270 -0.95526898 0.01302220
v 0.00346802 -0.80868298 0.01592610
v 0.05621490 -0.61831498 0.00036139
v -0.07623400 -0.89860803 -0.01278060
v -0.08082770 -0.78035098 -0.02766720
v -0.08106650 -0.84862000 -0.00743488
v -0.12430900 -0.39153999 -0.12813300
v -0.07087060 -0.46520099 -0.07459060
v -0.11800400 -0.36450601 -0.13863300
v -0.10865400 -0.28581199 -0.12711500
v -0.10577100 -0.21969400 -0.11922400
v -0.12220800 -0.28335601 -0.13068500
v -0.03800920 -1.00286996 0.01289410
v 0.03031270 -0.95526898 0.01302220
v -0.04071540 -0.98947603 0.00136343
v 0.05826530 0.07324860 -0.00292781
v 0.05838210 -0.07186810 -0.00025423
v 0.01019980 0.09296910 -0.00084499
v 0.01019980 0.09296910 -0.00084499
v 0.05838210 -0.07186810 -0.00025423
v 0.00949624 -0.07469970 0.00040248
v 0.01019980 0.09296910 -0.00084499
v 0.00949624 -0.07469970 0.00040248
v -0.05847800 -0.06418060 -0.00000429
v 0.01019980 0.09296910 -0.00084499
v -0.05847800 -0.06418060 -0.00000429
v -0.05781840 0.06625830 -0.00015103
v 0.05826530 0.07324860 -0.00292781
v 0.07118470 0.13959800 -0.05544310
v 0.08311700 0.13835400 -0.07317620
v 0.05826530 0.07324860 -0.00292781
v 0.08311700 0.13835400 -0.07317620
v 0.05587350 0.06594860 -0.00971291
v 0.05587350 0.06594860 -0.00971291
v 0.05590170 -0.05887280 -0.00965852
v 0.05826530 0.07324860 -0.00292781
v 0.05590170 -0.05887280 -0.00965852
v 0.05838210 -0.07186810 -0.00025423
v 0.05826530 0.07324860 -0.00292781
v 0.08311700 0.13835400 -0.07317620
v 0.12633400 0.29399699 -0.13655700
v 0.08989730 0.23919700 -0.10476600
v 0.08804830 0.74360299 -0.02757130
v 0.08204610 0.76524001 -0.03050000
v 0.10482500 0.54534203 -0.09690030
v 0.08204610 0.76524001 -0.03050000
v 0.06469630 0.51325202 -0.06428440
v 0.10482500 0.54534203 -0.09690030
v 0.07500170 0.97503901 -0.00934454
v 0.08138440 0.88502300 -0.00491485
v 0.03791310 1.00302994 0.01297840
v 0.07623350 0.89877898 -0.01276890
v 0.08138440 0.88502300 -0.00491485
v 0.07500170 0.97503901 -0.00934454
v 0.07500170 0.97503901 -0.00934454
v 0.03791310 1.00302994 0.01297840
v 0.04087790 0.98949498 0.00131778
v 0.04087790 0.98949498 0.00131778
v -0.02968450 0.95604497 0.01264090
v -0.02270390 0.85297501 0.00390995
v -0.02270390 0.85297501 0.00390995
v -0.02968450 0.95604497 0.01264090
v -0.02989260 0.96582401 0.00334368
v -0.05569110 0.06617150 -0.00963317
v -0.00491936 0.21935999 -0.01960460
v -0.05840500 0.25407600 -0.00958140
v -0.05181490 0.83919400 -0.00766297
v -0.05636350 0.55811101 -0.00976680
v -0.02270390 0.85297501 0.00390995
v -0.05636350 0.55811101 -0.00976680
v -0.05181490 0.83919400 -0.00766297
v -0.05334840 0.95098299 -0.00752904
v 0.01019980 0.09296910 -0.00084499
v 0.07118470 0.13959800 -0.05544310
v 0.05826530 0.07324860 -0.00292781
v 0.12633400 0.29399699 -0.13655700
v 0.07118470 0.13959800 -0.05544310
v 0.05210300 0.24569000 -0.04788100
v 0.08311700 0.13835400 -0.07317620
v 0.07118470 0.13959800 -0.05544310
v 0.12633400 0.29399699 -0.13655700
v 0.08804830 0.74360299 -0.02757130
v 0.11876600 0.44238901 -0.11587900
v 0.06292280 0.51866800 -0.04692290
v 0.06469630 0.51325202 -0.06428440
v 0.11876600 0.44238901 -0.11587900
v 0.10482500 0.54534203 -0.09690030
v 0.10482500 0.54534203 -0.09690030
v 0.11876600 0.44238901 -0.11587900
v 0.08804830 0.74360299 -0.02757130
v -0.00684245 0.80112797 0.01595840
v -0.02968450 0.95604497 0.01264090
v 0.03791310 1.00302994 0.01297840
v -0.02968450 0.95604497 0.01264090
v -0.05731770 0.95199198 -0.00004063
v -0.02989260 0.96582401 0.00334368
v -0.05334840 0.95098299 -0.00752904
v -0.02989260 0.96582401 0.00334368
v -0.05731770 0.95199198 -0.00004063
v -0.05731770 0.95199198 -0.00004063
v -0.04920080 0.41031599 -0.00079041
v -0.05781840 0.06625830 -0.00015103
v -0.05781840 0.06625830 -0.00015103
v -0.01035910 0.17183900 -0.00576001
v 0.01019980 0.09296910 -0.00084499
v -0.05731770 0.95199198 -0.00004063
v -0.05018510 0.58952898 0.00094740
v -0.04920080 0.41031599 -0.00079041
v -0.05781840 0.06625830 -0.00015103
v -0.05840500 0.25407600 -0.00958140
v -0.05731770 0.95199198 -0.00004063
v -0.05840500 0.25407600 -0.00958140
v -0.05636350 0.55811101 -0.00976680
v -0.05731770 0.95199198 -0.00004063
v -0.02968450 0.95604497 0.01264090
v -0.05018510 0.58952898 0.00094740
v -0.05731770 0.95199198 -0.00004063
v 0.07623350 0.89877898 -0.01276890
v 0.08204610 0.76524001 -0.03050000
v 0.08138440 0.88502300 -0.00491485
v 0.11876600 0.44238901 -0.11587900
v 0.06469630 0.51325202 -0.06428440
v 0.11897500 0.37281400 -0.13963600
v 0.11876600 0.44238901 -0.11587900
v 0.11897500 0.37281400 -0.13963600
v 0.12633400 0.29399699 -0.13655700
v 0.11897500 0.37281400 -0.13963600
v 0.08989730 0.23919700 -0.10476600
v 0.12633400 0.29399699 -0.13655700
v 0.08204610 0.76524001 -0.03050000
v 0.08804830 0.74360299 -0.02757130
v 0.08138440 0.88502300 -0.00491485
v 0.03791310 1.00302994 0.01297840
v -0.02968450 0.95604497 0.01264090
v 0.04087790 0.98949498 0.00131778
v -0.05731770 0.95199198 -0.00004063
v -0.05636350 0.55811101 -0.00976680
v -0.05334840 0.95098299 -0.00752904
v -0.05840500 0.25407600 -0.00958140
v -0.05781840 0.06625830 -0.00015103
v -0.05847800 -0.06418060 -0.00000429
v -0.00797097 -0.08548550 -0.05241140
v 0.01413880 -0.08826160 -0.01229760
v -0.00415282 -0.02592710 -0.04324600
v 0.01403910 0.02056430 -0.01045830
v 0.00491512 0.08468850 -0.03843740
v -0.00825915 0.02590780 -0.04809050
v -0.00825915 0.02590780 -0.04809050
v 0.00491512 0.08468850 -0.03843740
v -0.00674691 0.07961890 -0.06490370
v -0.02066530 0.12710100 -0.00900471
v 0.01923800 0.12782200 -0.02761850
v -0.00491936 0.21935999 -0.01960460
v -0.00797097 -0.08548550 -0.05241140
v -0.00415282 -0.02592710 -0.04324600
v -0.02513230 -0.10227400 -0.01690850
v -0.00415282 -0.02592710 -0.04324600
v -0.02521900 -0.00095966 -0.00970329
v -0.02513230 -0.10227400 -0.01690850
v -0.00674691 0.07961890 -0.06490370
v -0.00847378 0.07539320 -0.00850851
v -0.00825915 0.02590780 -0.04809050
v -0.00415282 -0.02592710 -0.04324600
v 0.01413880 -0.08826160 -0.01229760
v 0.01596210 -0.02784720 -0.00996952
v 0.00491512 0.08468850 -0.03843740
v 0.01403910 0.02056430 -0.01045830
v 0.01530050 0.07616270 -0.00924243
v 0.07118470 0.13959800 -0.05544310
v 0.01019980 0.09296910 -0.00084499
v 0.05210300 0.24569000 -0.04788100
v 0.05210300 0.24569000 -0.04788100
v 0.01019980 0.09296910 -0.00084499
v -0.01035910 0.17183900 -0.00576001
v -0.01035910 0.17183900 -0.00576001
v -0.05781840 0.06625830 -0.00015103
v 0.01034720 0.41319999 -0.01469400
v 0.01034720 0.41319999 -0.01469400
v -0.05781840 0.06625830 -0.00015103
v -0.04920080 0.41031599 -0.00079041
v -0.00684245 0.80112797 0.01595840
v -0.05018510 0.58952898 0.00094740
v -0.02968450 0.95604497 0.01264090
v 0.02894830 0.67239702 -0.00493550
v -0.00684245 0.80112797 0.01595840
v 0.08138440 0.88502300 -0.00491485
v 0.03791310 1.00302994 0.01297840
v 0.08138440 0.88502300 -0.00491485
v -0.00684245 0.80112797 0.01595840
v 0.08138440 0.88502300 -0.00491485
v 0.08804830 0.74360299 -0.02757130
v 0.02894830 0.67239702 -0.00493550
v 0.08804830 0.74360299 -0.02757130
v 0.06292280 0.51866800 -0.04692290
v 0.02894830 0.67239702 -0.00493550
v 0.06292280 0.51866800 -0.04692290
v 0.11876600 0.44238901 -0.11587900
v 0.12633400 0.29399699 -0.13655700
v 0.06292280 0.51866800 -0.04692290
v 0.12633400 0.29399699 -0.13655700
v 0.05210300 0.24569000 -0.04788100
v -0.01035910 0.17183900 -0.00576001
v 0.01034720 0.41319999 -0.01469400
v 0.05210300 0.24569000 -0.04788100
v 0.05210300 0.24569000 -0.04788100
v 0.01034720 0.41319999 -0.01469400
v 0.06292280 0.51866800 -0.04692290
v 0.01034720 0.41319999 -0.01469400
v -0.04920080 0.41031599 -0.00079041
v -0.02322370 0.56844300 0.00228038
v 0.01034720 0.41319999 -0.01469400
v -0.02322370 0.56844300 0.00228038
v 0.02894830 0.67239702 -0.00493550
v -0.04920080 0.41031599 -0.00079041
v -0.05018510 0.58952898 0.00094740
v -0.02322370 0.56844300 0.00228038
v 0.06292280 0.51866800 -0.04692290
v 0.01034720 0.41319999 -0.01469400
v 0.02894830 0.67239702 -0.00493550
v -0.02322370 0.56844300 0.00228038
v -0.05018510 0.58952898 0.00094740
v -0.00684245 0.80112797 0.01595840
v 0.02894830 0.67239702 -0.00493550
v -0.02322370 0.56844300 0.00228038
v -0.00684245 0.80112797 0.01595840
v 0.00578565 -0.22044100 -0.01047730
v -0.03316660 -0.12148900 -0.02041790
v 0.00949624 -0.07469970 0.00040248
v 0.00949624 -0.07469970 0.00040248
v 0.05580100 -0.18587001 -0.00030265
v 0.00578565 -0.22044100 -0.01047730
v 0.00578565 -0.22044100 -0.01047730
v 0.05580100 -0.18587001 -0.00030265
v 0.04920080 -0.41031599 -0.00079041
v -0.00309347 -0.64782298 0.00342704
v 0.05621490 -0.61831498 0.00036139
v 0.00346802 -0.80868298 0.01592610
v -0.00309347 -0.64782298 0.00342704
v 0.00346802 -0.80868298 0.01592610
v -0.08106650 -0.84862000 -0.00743488
v -0.03800920 -1.00286996 0.01289410
v -0.08106650 -0.84862000 -0.00743488
v 0.00346802 -0.80868298 0.01592610
v -0.00591425 -0.48652101 -0.00899400
v -0.06078190 -0.53417403 -0.04289530
v 0.00578565 -0.22044100 -0.01047730
v -0.06078190 -0.53417403 -0.04289530
v -0.12430900 -0.39153999 -0.12813300
v -0.12220800 -0.28335601 -0.13068500
v -0.06078190 -0.53417403 -0.04289530
v -0.12220800 -0.28335601 -0.13068500
v -0.05146770 -0.26177001 -0.04790690
v -0.05146770 -0.26177001 -0.04790690
v -0.12220800 -0.28335601 -0.13068500
v -0.09369960 -0.20388401 -0.08886870
v -0.03316660 -0.12148900 -0.02041790
v 0.00578565 -0.22044100 -0.01047730
v -0.05146770 -0.26177001 -0.04790690
v -0.09369960 -0.20388401 -0.08886870
v -0.03316660 -0.12148900 -0.02041790
v -0.05146770 -0.26177001 -0.04790690
v -0.05146770 -0.26177001 -0.04790690
v 0.00578565 -0.22044100 -0.01047730
v -0.06078190 -0.53417403 -0.04289530
v 0.00578565 -0.22044100 -0.01047730
v 0.04920080 -0.41031599 -0.00079041
v -0.00591425 -0.48652101 -0.00899400
v -0.00591425 -0.48652101 -0.00899400
v 0.04920080 -0.41031599 -0.00079041
v -0.00309347 -0.64782298 0.00342704
v -0.06078190 -0.53417403 -0.04289530
v -0.00591425 -0.48652101 -0.00899400
v -0.00309347 -0.64782298 0.00342704
v -0.06078190 -0.53417403 -0.04289530
v -0.00309347 -0.64782298 0.00342704
v -0.08106650 -0.84862000 -0.00743488
v -0.00446565 0.09368330 -0.14606200
v 0.01608780 0.10419200 -0.04741780
v -0.01352630 0.10483400 -0.06578280
v -0.01352630 0.10483400 -0.06578280
v 0.01608780 0.10419200 -0.04741780
v -0.00807352 0.12266800 -0.03704250
f 1 2 3
f 4 5 6
f 7 8 9
f 10 11 12
f 13 14 15
f 16 17 18
f 19 20 21
f 22 23 24
f 25 26 27
f 28 29 30
f 31 32 33
f 34 35 36
f 37 38 39
f 40 41 42
f 43 44 45
f 46 47 48
f 49 50 51
f 52 53 54
f 55 56 57
f 58 59 60
f 61 62 63
f 64 65 66
f 67 68 69
f 70 71 72
f 73 74 75
f 76 77 78
f 79 80 81
f 82 83 84
f 85 86 87
f 86 88 87
f 89 90 91
f 92 93 94
f 95 96 97
f 98 99 100
f 101 102 103
f 104 105 106
f 107 108 109
f 110 111 112
f 113 114 115
f 116 117 118
f 119 120 121
f 122 123 124
f 125 126 127
f 128 129 130
f 131 132 133
f 134 135 136
f 137 138 139
f 140 141 142
f 143 144 145
f 146 147 148
f 149 150 151
f 152 153 154
f 155 156 157
f 158 159 160
f 161 162 163
f 164 165 166
f 167 168 169
f 170 171 172
f 173 174 175
f 176 177 178
f 179 180 181
f 182 183 184
f 185 186 187
f 188 189 190
f 191 192 193
f 194 195 196
f 197 198 199
f 200 201 202
f 203 204 205
f 206 207 208
f 209 210 211
f 212 213 214
f 215 216 217
f 218 219 220
f 221 222 223
f 224 225 226
f 227 228 229
f 230 231 232
f 233 234 235
f 236 237 238
f 239 240 241
f 242 243 244
f 245 246 247
f 248 249 250
f 251 252 253
f 254 255 256
f 257 258 259
f 260 261 262
f 263 264 265
f 266 267 268
f 269 270 271
f 272 273 274
f 275 276 277
f 278 279 280
f 281 282 283
f 284 285 286
f 287 288 289
f 290 291 292
f 293 294 295
f 296 297 298
f 299 300 301
f 302 303 304
f 305 306 307
f 308 309 310
f 311 312 313
f 314 315 316
f 317 318 319
f 320 321 322
f 323 324 325
f 326 327 328
f 329 330 331
f 332 333 334
f 335 336 337
f 338 339 340
f 341 342 343
f 344 345 346
f 88 347 86
f 348 349 350
f 351 352 353
f 354 355 356
f 357 358 359
f 360 361 362
f 363 364 365
f 366 367 368
f 369 370 371
f 372 373 374
f 375 376 377
f 378 379 380
f 381 382 383
f 384 385 386
f 387 388 389
f 390 391 392
f 393 394 395
f 396 397 398
f 399 400 401
f 402 403 404
f 405 406 407
f 408 409 410
f 411 412 413
f 414 415 416
f 417 418 419
f 420 421 422
f 423 424 425
f 426 427 428
f 429 430 431
f 432 433 434
f 435 436 437
f 438 439 440
f 441 442 443
f 444 445 446
f 398 447 396
f 448 449 450
f 451 452 453
f 454 455 456
f 457 458 459
f 460 461 462
f 463 464 465
f 466 467 468
f 469 470 471
f 472 473 474
f 475 476 477
f 478 479 480
f 481 482 483
f 484 485 486
f 487 488 489
f 490 491 492
f 493 494 495
f 496 497 498
f 499 500 501
f 502 503 504
f 505 506 507
f 508 509 510
f 511 512 513
f 514 515 516
f 517 518 519
f 520 521 522
f 523 524 525
f 526 527 528
f 529 530 531
f 532 533 534
f 535 536 537
f 538 539 540
f 541 542 543
f 544 545 546
f 547 548 549
f 550 551 552
f 553 554 555
f 556 557 558
f 559 560 561
f 562 563 564
f 565 566 567
f 568 569 570
f 571 572 573
f 574 575 576
f 577 578 579
f 580 581 582
f 583 584 585
f 586 587 588
f 589 590 591
f 592 593 594
f 595 596 597
f 598 599 600
f 601 602 603
f 604 605 606
f 607 608 609
f 610 611 612
f 613 614 615
f 616 617 618
f 619 620 621
f 622 623 624
f 625 626 627
f 628 629 630
f 631 632 633
f 634 635 636
f 637 638 639
f 640 641 642
f 643 644 645
f 646 647 648
f 649 650 651
f 652 653 654
f 655 656 657
f 658 659 660
f 661 662 663
f 664 665 666
f 667 668 669
f 670 671 672
f 673 674 675
f 676 677 678
f 679 680 681
f 682 683 684
f 685 686 687
f 688 689 690
f 691 692 693
f 694 695 696
f 697 698 699
f 700 701 702
f 703 704 705
f 706 707 708
f 709 710 711
f 712 713 714
f 715 716 717
f 718 719 720
f 721 722 723
f 724 725 726
f 727 728 729
f 730 731 732
f 733 734 735
f 736 737 738
f 739 740 741
f 742 743 744
f 745 746 747
f 748 749 750
f 751 752 753
f 754 755 756
f 757 758 759
f 760 761 762
f 763 764 765
f 766 767 768
f 769 770 771
f 772 773 774
f 775 776 777
f 778 779 780
f 781 782 783
f 784 785 786
f 787 788 789
f 790 791 792
f 793 794 795
f 796 797 798
f 799 800 801
f 802 803 804
f 805 806 807
f 808 809 810
f 811 812 813
f 814 815 816
f 817 818 819
f 820 821 822
f 823 824 825
f 826 827 828
f 829 830 831
f 832 833 834
f 835 836 837
f 838 839 840
f 841 842 843
f 844 845 846
f 847 848 849
f 850 851 852
f 853 854 855
f 856 857 858
f 859 860 861
f 862 863 864
f 865 866 867
f 868 869 870
f 871 872 873
f 874 875 876
f 877 878 879
f 880 881 882
f 883 884 885
f 886 887 888
f 889 890 891
f 892 893 894

