# https://github.com/mikedh/trimesh

o shape0-lib
v 0.02989480 0.96582401 0.00334253
v 0.00751962 0.68538702 0.00035975
v -0.00078476 0.97542697 0.00767503
v -0.04007650 0.16311499 -0.04832810
v -0.08357140 0.14003100 -0.07364560
v -0.11791300 0.30544201 -0.14431199
v -0.05604920 0.54557103 -0.05124840
v 0.00751962 0.68538702 0.00035975
v 0.01606510 0.59463102 -0.00720468
v -0.04007650 0.16311499 -0.04832810
v -0.11791300 0.30544201 -0.14431199
v -0.05604920 0.54557103 -0.05124840
v -0.05604920 0.54557103 -0.05124840
v -0.11791300 0.30544201 -0.14431199
v -0.07036070 0.79810202 -0.01999930
v 0.00751962 0.68538702 0.00035975
v -0.05604920 0.54557103 -0.05124840
v -0.07036070 0.79810202 -0.01999930
v -0.02556800 0.99320400 0.00603233
v -0.07036070 0.79810202 -0.01999930
v -0.07500170 0.97503901 -0.00934454
v -0.02556800 0.99320400 0.00603233
v -0.00078476 0.97542697 0.00767503
v 0.00751962 0.68538702 0.00035975
v 0.01514780 0.10221600 -0.01316580
v 0.01606510 0.59463102 -0.00720468
v 0.05407120 0.42963400 -0.01015180
v 0.01606510 0.59463102 -0.00720468
v 0.00751962 0.68538702 0.00035975
v 0.05407120 0.42963400 -0.01015180
v 0.02989480 0.96582401 0.00334253
v 0.05744570 0.79146302 -0.00951397
v 0.00751962 0.68538702 0.00035975
v 0.05744570 0.79146302 -0.00951397
v 0.05407120 0.42963400 -0.01015180
v 0.00751962 0.68538702 0.00035975
v 0.05592420 -0.06496610 -0.00957289
v 0.01514780 0.10221600 -0.01316580
v 0.05407120 0.42963400 -0.01015180
v 0.01514780 0.10221600 -0.01316580
v -0.04007650 0.16311499 -0.04832810
v -0.05604920 0.54557103 -0.05124840
v 0.01514780 0.10221600 -0.01316580
v -0.05604920 0.54557103 -0.05124840
v 0.01606510 0.59463102 -0.00720468
v 0.00751962 0.68538702 0.00035975
v -0.07036070 0.79810202 -0.01999930
v -0.02556800 0.99320400 0.00603233
v 0.05592420 -0.06496610 -0.00957289
v -0.05585820 0.06658600 -0.00972389
v 0.01514780 0.10221600 -0.01316580
v -0.04007650 0.16311499 -0.04832810
v -0.05585820 0.06658600 -0.00972389
v -0.08357140 0.14003100 -0.07364560
v -0.04007650 0.16311499 -0.04832810
v 0.01514780 0.10221600 -0.01316580
v -0.05585820 0.06658600 -0.00972389
v -0.05569110 -0.06617150 -0.00963317
v -0.05585820 0.06658600 -0.00972389
v 0.05592420 -0.06496610 -0.00957289
v 0.08311700 -0.13835400 -0.07317620
v -0.00174063 -0.08183490 -0.00868353
v 0.05592420 -0.06496610 -0.00957289
v -0.05569110 -0.06617150 -0.00963317
v 0.05592420 -0.06496610 -0.00957289
v -0.00174063 -0.08183490 -0.00868353
v -0.00174063 -0.08183490 -0.00868353
v 0.08311700 -0.13835400 -0.07317620
v 0.01151540 -0.20363601 -0.02641330
v -0.02989260 -0.96582401 0.00334368
v -0.01485000 -0.61436099 -0.00403874
v 0.00078285 -0.97542697 0.00767481
v 0.01151540 -0.20363601 -0.02641330
v 0.08311700 -0.13835400 -0.07317620
v 0.11857800 -0.30299899 -0.13940901
v 0.05604980 -0.54557002 -0.05124880
v 0.11857800 -0.30299899 -0.13940901
v 0.07036020 -0.79810899 -0.01999790
v -0.01485000 -0.61436099 -0.00403874
v 0.05604980 -0.54557002 -0.05124880
v 0.07036020 -0.79810899 -0.01999790
v 0.03680240 -0.99289298 0.00269060
v 0.07036020 -0.79810899 -0.01999790
v 0.07500170 -0.97503901 -0.00934454
v 0.03680240 -0.99289298 0.00269060
v 0.00078285 -0.97542697 0.00767481
v -0.01485000 -0.61436099 -0.00403874
v 0.01151540 -0.20363601 -0.02641330
v -0.05483560 -0.29086399 -0.01157460
v -0.02989260 -0.96582401 0.00334368
v -0.05490520 -0.80368900 -0.00777506
v -0.01485000 -0.61436099 -0.00403874
v -0.05490520 -0.80368900 -0.00777506
v -0.05483560 -0.29086399 -0.01157460
v -0.01485000 -0.61436099 -0.00403874
v -0.05483560 -0.29086399 -0.01157460
v -0.05569110 -0.06617150 -0.00963317
v -0.00174063 -0.08183490 -0.00868353
v 0.01151540 -0.20363601 -0.02641330
v -0.05483560 -0.29086399 -0.01157460
v -0.00174063 -0.08183490 -0.00868353
v 0.01151540 -0.20363601 -0.02641330
v 0.11857800 -0.30299899 -0.13940901
v 0.05604980 -0.54557002 -0.05124880
v 0.01151540 -0.20363601 -0.02641330
v 0.05604980 -0.54557002 -0.05124880
v -0.01485000 -0.61436099 -0.00403874
v -0.01485000 -0.61436099 -0.00403874
v 0.07036020 -0.79810899 -0.01999790
v 0.03680240 -0.99289298 0.00269060
v 0.02263190 -0.11074500 -0.13301700
v -0.01212240 -0.12025500 -0.07202430
v 0.01611380 -0.10387500 -0.03757130
v 0.02263190 -0.11074500 -0.13301700
v 0.01611380 -0.10387500 -0.03757130
v -0.01486370 -0.09366430 -0.09895730
v -0.01225970 0.13466799 -0.04632990
v 0.01659120 0.10487600 -0.05486420
v -0.00674525 0.09380060 -0.10023700
v -0.01770610 -0.00590916 -0.01108170
v -0.00274884 0.02695210 -0.04511940
v 0.01937730 0.01481560 -0.01050580
v 0.00830604 -0.02683580 -0.01177440
v -0.01770610 -0.00590916 -0.01108170
v 0.01937730 0.01481560 -0.01050580
v 0.02275600 -0.11593100 -0.02960840
v 0.07237460 -0.20495801 -0.08137190
v 0.00138781 -0.13746400 -0.02041270
v 0.00138781 -0.13746400 -0.02041270
v 0.02263190 -0.11074500 -0.13301700
v 0.02275600 -0.11593100 -0.02960840
v -0.02318750 -0.12185300 -0.01400710
v -0.05569110 -0.06617150 -0.00963317
v -0.00867444 -0.07730420 -0.00921494
v -0.00867444 -0.07730420 -0.00921494
v -0.01486370 -0.09366430 -0.09895730
v -0.02318750 -0.12185300 -0.01400710
v 0.04065060 -0.54929900 -0.03691430
v 0.00138781 -0.13746400 -0.02041270
v 0.07237460 -0.20495801 -0.08137190
v 0.04065060 -0.54929900 -0.03691430
v 0.07237460 -0.20495801 -0.08137190
v 0.11897500 -0.37281400 -0.13963600
v 0.04065060 -0.54929900 -0.03691430
v 0.07877580 -0.81362498 -0.01916120
v 0.00129643 -0.67671400 -0.00296720
v 0.07500170 -0.97503901 -0.00934454
v 0.03680240 -0.99289298 0.00269060
v 0.07877580 -0.81362498 -0.01916120
v 0.00129643 -0.67671400 -0.00296720
v 0.03680240 -0.99289298 0.00269060
v -0.02270390 -0.85297501 0.00390995
v 0.04065060 -0.54929900 -0.03691430
v 0.00129643 -0.67671400 -0.00296720
v -0.03039610 -0.36695701 -0.01295910
v -0.02270390 -0.85297501 0.00390995
v -0.02989260 -0.96582401 0.00334368
v -0.05490520 -0.80368900 -0.00777506
v -0.02989260 -0.96582401 0.00334368
v -0.05334840 -0.95098299 -0.00752904
v -0.05490520 -0.80368900 -0.00777506
v -0.02270390 -0.85297501 0.00390995
v -0.05490520 -0.80368900 -0.00777506
v 0.00129643 -0.67671400 -0.00296720
v 0.00129643 -0.67671400 -0.00296720
v -0.05490520 -0.80368900 -0.00777506
v -0.03039610 -0.36695701 -0.01295910
v -0.03039610 -0.36695701 -0.01295910
v -0.05490520 -0.80368900 -0.00777506
v -0.05834620 -0.18804300 -0.00926188
v -0.03039610 -0.36695701 -0.01295910
v -0.05569110 -0.06617150 -0.00963317
v 0.00138781 -0.13746400 -0.02041270
v 0.00138781 -0.13746400 -0.02041270
v -0.05569110 -0.06617150 -0.00963317
v -0.02318750 -0.12185300 -0.01400710
v 0.00138781 -0.13746400 -0.02041270
v 0.04065060 -0.54929900 -0.03691430
v -0.03039610 -0.36695701 -0.01295910
v 0.03680240 -0.99289298 0.00269060
v 0.00129643 -0.67671400 -0.00296720
v 0.07877580 -0.81362498 -0.01916120
v 0.02298530 0.11823600 -0.01211120
v 0.01429350 0.08864000 -0.01224760
v 0.01738980 0.08933290 -0.13590200
v 0.01738980 0.08933290 -0.13590200
v 0.01429350 0.08864000 -0.01224760
v -0.00497452 0.08488610 -0.01014600
v 0.01738980 0.08933290 -0.13590200
v -0.00497452 0.08488610 -0.01014600
v -0.02655100 0.10178300 -0.02457630
v 0.01429350 0.08864000 -0.01224760
v 0.01937730 0.01481560 -0.01050580
v -0.08357140 0.14003100 -0.07364560
v -0.02655100 0.10178300 -0.02457630
v -0.05585820 0.06658600 -0.00972389
v -0.05585820 0.06658600 -0.00972389
v -0.02655100 0.10178300 -0.02457630
v -0.00497452 0.08488610 -0.01014600
v 0.02263190 -0.11074500 -0.13301700
v 0.00449618 -0.08362880 -0.01933530
v 0.02275600 -0.11593100 -0.02960840
v 0.05592420 -0.06496610 -0.00957289
v 0.02275600 -0.11593100 -0.02960840
v 0.00449618 -0.08362880 -0.01933530
v 0.02275600 -0.11593100 -0.02960840
v 0.05592420 -0.06496610 -0.00957289
v 0.08311700 -0.13835400 -0.07317620
v 0.08311700 -0.13835400 -0.07317620
v 0.07237460 -0.20495801 -0.08137190
v 0.02275600 -0.11593100 -0.02960840
v 0.01937730 0.01481560 -0.01050580
v 0.05592420 -0.06496610 -0.00957289
v 0.00830604 -0.02683580 -0.01177440
v 0.05592420 -0.06496610 -0.00957289
v 0.00449618 -0.08362880 -0.01933530
v 0.00830604 -0.02683580 -0.01177440
v -0.00497452 0.08488610 -0.01014600
v -0.01770610 -0.00590916 -0.01108170
v -0.05585820 0.06658600 -0.00972389
v -0.05585820 0.06658600 -0.00972389
v -0.01770610 -0.00590916 -0.01108170
v -0.05569110 -0.06617150 -0.00963317
v -0.05569110 -0.06617150 -0.00963317
v -0.01770610 -0.00590916 -0.01108170
v -0.00867444 -0.07730420 -0.00921494
v -0.01486370 -0.09366430 -0.09895730
v -0.00867444 -0.07730420 -0.00921494
v 0.00449618 -0.08362880 -0.01933530
v -0.01486370 -0.09366430 -0.09895730
v 0.00449618 -0.08362880 -0.01933530
v 0.02263190 -0.11074500 -0.13301700
v -0.00392095 0.20680900 -0.02398180
v -0.01225970 0.13466799 -0.04632990
v -0.02655100 0.10178300 -0.02457630
v -0.00392095 0.20680900 -0.02398180
v 0.00030133 0.37745601 -0.01927900
v 0.02298530 0.11823600 -0.01211120
v -0.09372590 0.24779500 -0.10920100
v -0.02655100 0.10178300 -0.02457630
v -0.08357140 0.14003100 -0.07364560
v -0.07848000 0.83986098 -0.01710150
v -0.07500170 0.97503901 -0.00934454
v -0.02556800 0.99320400 0.00603233
v 0.02989480 0.96582401 0.00334253
v 0.05744570 0.79146302 -0.00951397
v 0.02274050 0.85053003 0.00378915
v 0.05744570 0.79146302 -0.00951397
v 0.02989480 0.96582401 0.00334253
v 0.05355200 0.95091802 -0.00758994
v 0.02274050 0.85053003 0.00378915
v 0.05744570 0.79146302 -0.00951397
v 0.00787323 0.60327798 -0.00724069
v 0.00030133 0.37745601 -0.01927900
v 0.01429350 0.08864000 -0.01224760
v 0.02298530 0.11823600 -0.01211120
v 0.05592420 -0.06496610 -0.00957289
v 0.02298530 0.11823600 -0.01211120
v -0.01225970 0.13466799 -0.04632990
v -0.00392095 0.20680900 -0.02398180
v -0.09372590 0.24779500 -0.10920100
v 0.00030133 0.37745601 -0.01927900
v -0.00392095 0.20680900 -0.02398180
v -0.02655100 0.10178300 -0.02457630
v -0.09372590 0.24779500 -0.10920100
v -0.00392095 0.20680900 -0.02398180
v 0.00030133 0.37745601 -0.01927900
v -0.09372590 0.24779500 -0.10920100
v -0.04100620 0.56313300 -0.03620530
v 0.00030133 0.37745601 -0.01927900
v -0.04100620 0.56313300 -0.03620530
v 0.00787323 0.60327798 -0.00724069
v 0.00787323 0.60327798 -0.00724069
v -0.02556800 0.99320400 0.00603233
v 0.02274050 0.85053003 0.00378915
v 0.00787323 0.60327798 -0.00724069
v -0.07848000 0.83986098 -0.01710150
v -0.02556800 0.99320400 0.00603233
v -0.01486370 -0.09366430 -0.09895730
v -0.01212240 -0.12025500 -0.07202430
v -0.02318750 -0.12185300 -0.01400710
v -0.02318750 -0.12185300 -0.01400710
v -0.01212240 -0.12025500 -0.07202430
v 0.02263190 -0.11074500 -0.13301700
v -0.02318750 -0.12185300 -0.01400710
v 0.02263190 -0.11074500 -0.13301700
v 0.00138781 -0.13746400 -0.02041270
v 0.02298530 0.11823600 -0.01211120
v 0.01659120 0.10487600 -0.05486420
v -0.01225970 0.13466799 -0.04632990
v -0.01225970 0.13466799 -0.04632990
v -0.00674525 0.09380060 -0.10023700
v -0.02655100 0.10178300 -0.02457630
v -0.02655100 0.10178300 -0.02457630
v -0.00674525 0.09380060 -0.10023700
v 0.01738980 0.08933290 -0.13590200
v 0.01738980 0.08933290 -0.13590200
v -0.00674525 0.09380060 -0.10023700
v 0.01659120 0.10487600 -0.05486420
v 0.01738980 0.08933290 -0.13590200
v 0.01659120 0.10487600 -0.05486420
v 0.02298530 0.11823600 -0.01211120
v -0.05847800 0.06418060 -0.00000429
v -0.05569110 -0.06617150 -0.00963317
v -0.05834620 -0.18804300 -0.00926188
v -0.05847800 0.06418060 -0.00000429
v -0.05585820 0.06658600 -0.00972389
v -0.05569110 -0.06617150 -0.00963317
v -0.11866700 0.43938601 -0.11833300
v -0.04100620 0.56313300 -0.03620530
v -0.11800400 0.36450601 -0.13863300
v -0.07848000 0.83986098 -0.01710150
v -0.04100620 0.56313300 -0.03620530
v -0.10411200 0.54621702 -0.09498960
v -0.07848000 0.83986098 -0.01710150
v 0.00787323 0.60327798 -0.00724069
v -0.04100620 0.56313300 -0.03620530
v -0.04100620 0.56313300 -0.03620530
v -0.09372590 0.24779500 -0.10920100
v -0.11800400 0.36450601 -0.13863300
v -0.04100620 0.56313300 -0.03620530
v -0.11866700 0.43938601 -0.11833300
v -0.10411200 0.54621702 -0.09498960
v -0.07500170 0.97503901 -0.00934454
v -0.08054730 0.82881099 -0.01039580
v -0.04087220 1.00118005 0.01250760
v -0.07848000 0.83986098 -0.01710150
v -0.08054730 0.82881099 -0.01039580
v -0.07500170 0.97503901 -0.00934454
v -0.07500170 0.97503901 -0.00934454
v -0.04087220 1.00118005 0.01250760
v -0.02556800 0.99320400 0.00603233
v -0.02556800 0.99320400 0.00603233
v 0.03037660 0.95586997 0.01264250
v 0.02274050 0.85053003 0.00378915
v 0.02274050 0.85053003 0.00378915
v 0.03037660 0.95586997 0.01264250
v 0.02989480 0.96582401 0.00334253
v 0.02298530 0.11823600 -0.01211120
v 0.00030133 0.37745601 -0.01927900
v 0.05592420 -0.06496610 -0.00957289
v 0.00030133 0.37745601 -0.01927900
v 0.05744570 0.79146302 -0.00951397
v 0.05592420 -0.06496610 -0.00957289
v 0.05827760 0.06997070 -0.00051171
v 0.05592420 -0.06496610 -0.00957289
v 0.05744570 0.79146302 -0.00951397
v -0.05847800 0.06418060 -0.00000429
v -0.01420370 0.08896410 -0.00118289
v -0.05585820 0.06658600 -0.00972389
v -0.11474000 0.25634199 -0.12165100
v -0.05585820 0.06658600 -0.00972389
v -0.01420370 0.08896410 -0.00118289
v -0.11866700 0.43938601 -0.11833300
v -0.08054730 0.82881099 -0.01039580
v -0.10411200 0.54621702 -0.09498960
v -0.11474000 0.25634199 -0.12165100
v -0.11800400 0.36450601 -0.13863300
v -0.09372590 0.24779500 -0.10920100
v -0.05585820 0.06658600 -0.00972389
v -0.11474000 0.25634199 -0.12165100
v -0.08357140 0.14003100 -0.07364560
v -0.08357140 0.14003100 -0.07364560
v -0.11474000 0.25634199 -0.12165100
v -0.09372590 0.24779500 -0.10920100
v -0.11800400 0.36450601 -0.13863300
v -0.11474000 0.25634199 -0.12165100
v -0.11866700 0.43938601 -0.11833300
v -0.11866700 0.43938601 -0.11833300
v -0.06039390 0.50963598 -0.04469960
v -0.08054730 0.82881099 -0.01039580
v 0.00393641 0.76775402 0.01455740
v 0.03037660 0.95586997 0.01264250
v -0.04087220 1.00118005 0.01250760
v 0.03037660 0.95586997 0.01264250
v 0.05731770 0.95199198 -0.00004063
v 0.02989480 0.96582401 0.00334253
v 0.05355200 0.95091802 -0.00758994
v 0.02989480 0.96582401 0.00334253
v 0.05731770 0.95199198 -0.00004063
v 0.05744570 0.79146302 -0.00951397
v 0.05355200 0.95091802 -0.00758994
v 0.05731770 0.95199198 -0.00004063
v 0.03037660 0.95586997 0.01264250
v 0.05621490 0.61831498 0.00036139
v 0.05731770 0.95199198 -0.00004063
v 0.02977820 0.46313700 -0.00252085
v 0.05827760 0.06997070 -0.00051171
v 0.05621490 0.61831498 0.00036139
v 0.02977820 0.46313700 -0.00252085
v -0.01420370 0.08896410 -0.00118289
v 0.05827760 0.06997070 -0.00051171
v 0.05827760 0.06997070 -0.00051171
v 0.05744570 0.79146302 -0.00951397
v 0.05731770 0.95199198 -0.00004063
v 0.05621490 0.61831498 0.00036139
v 0.05827760 0.06997070 -0.00051171
v 0.05731770 0.95199198 -0.00004063
v 0.03037660 0.95586997 0.01264250
v 0.00393641 0.76775402 0.01455740
v 0.05621490 0.61831498 0.00036139
v -0.10411200 0.54621702 -0.09498960
v -0.08054730 0.82881099 -0.01039580
v -0.07848000 0.83986098 -0.01710150
v -0.04087220 1.00118005 0.01250760
v 0.03037660 0.95586997 0.01264250
v -0.02556800 0.99320400 0.00603233
v 0.05826530 -0.07324860 -0.00292781
v 0.05827760 0.06997070 -0.00051171
v -0.01297140 -0.08752120 -0.00026711
v -0.01297140 -0.08752120 -0.00026711
v 0.05827760 0.06997070 -0.00051171
v -0.01420370 0.08896410 -0.00118289
v -0.01297140 -0.08752120 -0.00026711
v -0.01420370 0.08896410 -0.00118289
v -0.05847800 0.06418060 -0.00000429
v -0.01297140 -0.08752120 -0.00026711
v -0.05847800 0.06418060 -0.00000429
v -0.05784090 -0.07564440 -0.00020142
v 0.05826530 -0.07324860 -0.00292781
v 0.03703710 -0.13461000 -0.03027560
v 0.08311700 -0.13835400 -0.07317620
v 0.05826530 -0.07324860 -0.00292781
v 0.08311700 -0.13835400 -0.07317620
v 0.05592420 -0.06496610 -0.00957289
v 0.05592420 -0.06496610 -0.00957289
v 0.05827760 0.06997070 -0.00051171
v 0.05826530 -0.07324860 -0.00292781
v 0.08311700 -0.13835400 -0.07317620
v 0.12313400 -0.27807701 -0.13194400
v 0.07237460 -0.20495801 -0.08137190
v 0.11211700 -0.48396599 -0.11112000
v 0.04065060 -0.54929900 -0.03691430
v 0.11897500 -0.37281400 -0.13963600
v 0.08182960 -0.80871499 -0.01160480
v 0.07877580 -0.81362498 -0.01916120
v 0.11211700 -0.48396599 -0.11112000
v 0.07877580 -0.81362498 -0.01916120
v 0.04065060 -0.54929900 -0.03691430
v 0.11211700 -0.48396599 -0.11112000
v 0.07500170 -0.97503901 -0.00934454
v 0.08182960 -0.80871499 -0.01160480
v 0.04087220 -1.00118005 0.01250760
v 0.07877580 -0.81362498 -0.01916120
v 0.08182960 -0.80871499 -0.01160480
v 0.07500170 -0.97503901 -0.00934454
v 0.07500170 -0.97503901 -0.00934454
v 0.04087220 -1.00118005 0.01250760
v 0.03680240 -0.99289298 0.00269060
v 0.03680240 -0.99289298 0.00269060
v -0.02989750 -0.95689398 0.01262230
v -0.02270390 -0.85297501 0.00390995
v -0.02270390 -0.85297501 0.00390995
v -0.02989750 -0.95689398 0.01262230
v -0.02989260 -0.96582401 0.00334368
v -0.05569110 -0.06617150 -0.00963317
v -0.03039610 -0.36695701 -0.01295910
v -0.05834620 -0.18804300 -0.00926188
v 0.08311700 -0.13835400 -0.07317620
v 0.03703710 -0.13461000 -0.03027560
v 0.12313400 -0.27807701 -0.13194400
v 0.08182960 -0.80871499 -0.01160480
v 0.11876600 -0.44238901 -0.11587900
v 0.06098170 -0.51919001 -0.04451290
v 0.11211700 -0.48396599 -0.11112000
v 0.11876600 -0.44238901 -0.11587900
v 0.08182960 -0.80871499 -0.01160480
v -0.00561221 -0.65254402 0.00854968
v -0.02989750 -0.95689398 0.01262230
v 0.04087220 -1.00118005 0.01250760
v -0.02989750 -0.95689398 0.01262230
v -0.05731770 -0.95199198 -0.00004063
v -0.02989260 -0.96582401 0.00334368
v -0.05334840 -0.95098299 -0.00752904
v -0.02989260 -0.96582401 0.00334368
v -0.05731770 -0.95199198 -0.00004063
v -0.05731770 -0.95199198 -0.00004063
v -0.05117260 -0.50388700 -0.00024258
v -0.05784090 -0.07564440 -0.00020142
v -0.05784090 -0.07564440 -0.00020142
v -0.05834620 -0.18804300 -0.00926188
v -0.05731770 -0.95199198 -0.00004063
v -0.05834620 -0.18804300 -0.00926188
v -0.05490520 -0.80368900 -0.00777506
v -0.05731770 -0.95199198 -0.00004063
v -0.02989750 -0.95689398 0.01262230
v -0.05117260 -0.50388700 -0.00024258
v -0.05731770 -0.95199198 -0.00004063
v 0.11876600 -0.44238901 -0.11587900
v 0.11211700 -0.48396599 -0.11112000
v 0.11897500 -0.37281400 -0.13963600
v 0.11876600 -0.44238901 -0.11587900
v 0.11897500 -0.37281400 -0.13963600
v 0.12313400 -0.27807701 -0.13194400
v 0.11897500 -0.37281400 -0.13963600
v 0.07237460 -0.20495801 -0.08137190
v 0.12313400 -0.27807701 -0.13194400
v 0.04087220 -1.00118005 0.01250760
v -0.02989750 -0.95689398 0.01262230
v 0.03680240 -0.99289298 0.00269060
v -0.05731770 -0.95199198 -0.00004063
v -0.05490520 -0.80368900 -0.00777506
v -0.05334840 -0.95098299 -0.00752904
v -0.05834620 -0.18804300 -0.00926188
v -0.05784090 -0.07564440 -0.00020142
v -0.05847800 0.06418060 -0.00000429
v 0.03703710 -0.13461000 -0.03027560
v 0.05826530 -0.07324860 -0.00292781
v -0.01297140 -0.08752120 -0.00026711
v -0.00497452 0.08488610 -0.01014600
v 0.01429350 0.08864000 -0.01224760
v -0.00274884 0.02695210 -0.04511940
v 0.00830604 -0.02683580 -0.01177440
v 0.00449618 -0.08362880 -0.01933530
v -0.01770610 -0.00590916 -0.01108170
v -0.01770610 -0.00590916 -0.01108170
v 0.00449618 -0.08362880 -0.01933530
v -0.00867444 -0.07730420 -0.00921494
v -0.00274884 0.02695210 -0.04511940
v -0.01770610 -0.00590916 -0.01108170
v -0.00497452 0.08488610 -0.01014600
v -0.00274884 0.02695210 -0.04511940
v 0.01429350 0.08864000 -0.01224760
v 0.01937730 0.01481560 -0.01050580
v -0.01297140 -0.08752120 -0.00026711
v -0.05784090 -0.07564440 -0.00020142
v 0.01034720 -0.41319999 -0.01469400
v 0.01034720 -0.41319999 -0.01469400
v -0.05784090 -0.07564440 -0.00020142
v -0.05117260 -0.50388700 -0.00024258
v -0.00561221 -0.65254402 0.00854968
v -0.05117260 -0.50388700 -0.00024258
v -0.02989750 -0.95689398 0.01262230
v 0.04087220 -1.00118005 0.01250760
v 0.08182960 -0.80871499 -0.01160480
v -0.00561221 -0.65254402 0.00854968
v 0.08182960 -0.80871499 -0.01160480
v 0.06098170 -0.51919001 -0.04451290
v -0.00561221 -0.65254402 0.00854968
v 0.06098170 -0.51919001 -0.04451290
v 0.11876600 -0.44238901 -0.11587900
v 0.12313400 -0.27807701 -0.13194400
v 0.06098170 -0.51919001 -0.04451290
v 0.12313400 -0.27807701 -0.13194400
v 0.03703710 -0.13461000 -0.03027560
v -0.01297140 -0.08752120 -0.00026711
v 0.01034720 -0.41319999 -0.01469400
v 0.03703710 -0.13461000 -0.03027560
v 0.06098170 -0.51919001 -0.04451290
v 0.01034720 -0.41319999 -0.01469400
v -0.05117260 -0.50388700 -0.00024258
v -0.00561221 -0.65254402 0.00854968
v 0.06098170 -0.51919001 -0.04451290
v 0.01034720 -0.41319999 -0.01469400
v -0.00561221 -0.65254402 0.00854968
v -0.01420370 0.08896410 -0.00118289
v 0.02977820 0.46313700 -0.00252085
v 0.00564852 0.24997100 -0.01180470
v 0.02977820 0.46313700 -0.00252085
v 0.05621490 0.61831498 0.00036139
v 0.00393641 0.76775402 0.01455740
v -0.04087220 1.00118005 0.01250760
v -0.08054730 0.82881099 -0.01039580
v 0.00393641 0.76775402 0.01455740
v -0.06039390 0.50963598 -0.04469960
v -0.11866700 0.43938601 -0.11833300
v -0.11474000 0.25634199 -0.12165100
v -0.06039390 0.50963598 -0.04469960
v -0.11474000 0.25634199 -0.12165100
v -0.05146770 0.26177001 -0.04790690
v -0.01420370 0.08896410 -0.00118289
v 0.00564852 0.24997100 -0.01180470
v -0.05146770 0.26177001 -0.04790690
v -0.11474000 0.25634199 -0.12165100
v -0.01420370 0.08896410 -0.00118289
v -0.05146770 0.26177001 -0.04790690
v -0.05146770 0.26177001 -0.04790690
v 0.00564852 0.24997100 -0.01180470
v -0.06039390 0.50963598 -0.04469960
v 0.00564852 0.24997100 -0.01180470
v 0.02977820 0.46313700 -0.00252085
v 0.00393641 0.76775402 0.01455740
v -0.06039390 0.50963598 -0.04469960
v 0.00564852 0.24997100 -0.01180470
v 0.00393641 0.76775402 0.01455740
v -0.06039390 0.50963598 -0.04469960
v 0.00393641 0.76775402 0.01455740
v -0.08054730 0.82881099 -0.01039580
v -0.01486370 -0.09366430 -0.09895730
v 0.01611380 -0.10387500 -0.03757130
v -0.01212240 -0.12025500 -0.07202430
f 1 2 3
f 4 5 6
f 7 8 9
f 10 11 12
f 13 14 15
f 16 17 18
f 19 20 21
f 22 23 24
f 25 26 27
f 28 29 30
f 31 32 33
f 34 35 36
f 37 38 39
f 40 41 42
f 43 44 45
f 46 47 48
f 49 50 51
f 52 53 54
f 55 56 57
f 58 59 60
f 61 62 63
f 64 65 66
f 67 68 69
f 70 71 72
f 73 74 75
f 76 77 78
f 79 80 81
f 82 83 84
f 85 86 87
f 88 87 89
f 90 91 92
f 93 94 95
f 96 97 98
f 99 100 101
f 102 103 104
f 105 106 107
f 108 109 110
f 111 112 113
f 114 115 116
f 117 118 119
f 120 121 122
f 123 124 125
f 126 127 128
f 129 130 131
f 132 133 134
f 135 136 137
f 138 139 140
f 141 142 143
f 144 145 146
f 147 148 149
f 150 151 152
f 153 154 155
f 156 157 158
f 159 160 161
f 162 163 164
f 165 166 167
f 168 169 170
f 171 172 173
f 174 175 176
f 177 178 179
f 180 181 182
f 183 184 185
f 186 187 188
f 189 190 191
f 192 49 193
f 194 195 196
f 197 198 199
f 200 201 202
f 203 204 205
f 206 207 208
f 209 210 211
f 212 213 214
f 215 216 217
f 218 219 220
f 221 222 223
f 224 225 226
f 227 228 229
f 230 231 232
f 233 234 235
f 236 237 238
f 239 240 241
f 242 243 244
f 245 246 247
f 248 249 250
f 251 252 253
f 253 252 254
f 255 256 257
f 258 259 260
f 261 262 263
f 264 265 266
f 267 268 269
f 270 271 272
f 273 274 275
f 276 277 278
f 279 280 281
f 282 283 284
f 285 286 287
f 288 289 290
f 291 292 293
f 294 295 296
f 297 298 299
f 300 301 302
f 303 304 305
f 306 307 308
f 309 310 311
f 312 313 314
f 315 316 317
f 318 319 320
f 321 322 323
f 324 325 326
f 327 328 329
f 330 331 332
f 333 334 335
f 336 337 338
f 339 340 341
f 342 343 344
f 345 346 347
f 348 349 350
f 351 352 353
f 354 355 356
f 357 358 359
f 360 361 362
f 363 364 365
f 366 367 368
f 369 370 371
f 372 373 374
f 375 376 377
f 378 379 380
f 381 382 383
f 384 385 386
f 387 388 389
f 390 391 392
f 393 394 395
f 396 397 398
f 399 400 401
f 402 403 404
f 405 406 407
f 408 409 410
f 411 412 413
f 414 415 416
f 417 418 419
f 420 421 422
f 423 424 425
f 426 427 428
f 429 430 431
f 432 433 434
f 435 436 437
f 438 439 440
f 441 442 443
f 444 445 446
f 447 448 449
f 450 451 452
f 453 454 455
f 456 457 458
f 459 460 461
f 462 463 464
f 465 466 467
f 468 469 470
f 471 472 473
f 474 475 476
f 477 478 479
f 480 481 482
f 483 484 485
f 486 487 488
f 489 490 491
f 492 493 494
f 495 496 497
f 498 499 500
f 501 502 503
f 504 505 506
f 507 508 509
f 510 511 512
f 513 514 515
f 516 517 518
f 519 520 521
f 522 523 524
f 525 526 527
f 528 529 530
f 531 532 533
f 534 535 536
f 537 538 539
f 540 541 542
f 543 544 545
f 546 547 548
f 548 547 549
f 550 551 552
f 553 554 555
f 556 557 558
f 559 560 561
f 562 563 564
f 565 566 567
f 568 569 570
f 571 572 573
f 574 575 576
f 577 578 579
f 580 581 582
f 583 584 585
f 586 587 588
f 589 590 591

